<?xml version="1.0" encoding="UTF-8"?>
<svg width="10px" height="15px" viewBox="0 0 10 15" version="1.1" xmlns="http://www.w3.org/2000/svg" xmlns:xlink="http://www.w3.org/1999/xlink">
    <!-- Generator: Sketch 49.2 (51160) - http://www.bohemiancoding.com/sketch -->
    <title>if_lightbulb-1_177371</title>
    <desc>Created with Sketch.</desc>
    <defs></defs>
    <g id="Page-2" stroke="none" stroke-width="1" fill="none" fill-rule="evenodd">
        <g id="Mateibot---Tip-Display" transform="translate(-118.000000, -244.000000)" fill="#EBAE25">
            <g id="Group-3" transform="translate(108.000000, 234.000000)">
                <g id="if_lightbulb-1_177371" transform="translate(10.000000, 10.000000)">
                    <g id="Shape">
                        <path d="M0,4.6875 C0,5.7421875 0.205,6.4415625 0.998,7.498125 C1.692,8.4225 2.705,9.675 2.946,10.785 C3.002,11.038125 3.224,11.25 3.5,11.25 L6.5,11.25 C6.776,11.25 6.998,11.038125 7.054,10.785 C7.295,9.675 8.308,8.4225 9.002,7.498125 C9.795,6.4415625 10,5.7421875 10,4.6875 C10,2.098125 7.762,0 5,0 C2.238,0 0,2.098125 0,4.6875 Z" fill-rule="nonzero"></path>
                        <path d="M4,14.0625 L4,14.53125 C4,14.79 4.224,15 4.5,15 L5.5,15 C5.776,15 6,14.79 6,14.53125 L6,14.0625 L6.5,14.0625 C6.776,14.0625 7,13.8525 7,13.59375 L7,12.65625 C7,12.3975 6.776,12.1875 6.5,12.1875 L3.5,12.1875 C3.224,12.1875 3,12.3975 3,12.65625 L3,13.59375 C3,13.8525 3.224,14.0625 3.5,14.0625 L4,14.0625 Z" fill-rule="nonzero"></path>
                    </g>
                </g>
            </g>
        </g>
    </g>
</svg>